# xmcd
#
# Track frame offsets:
#	182
#	15752
#	37622
#	55785
#	85690
#	105127
#	124490
#	153705
#	172345
#	187940
#	209105
#
# Disc length: 3088 seconds
#
# Revision: 1
# Processed by: cddbd v1.4PL0 Copyright (c) Steve Scherf et al.
# Submitted via: audiograbber 1.80.04
#
DISCID=840c0e0b
DTITLE=Samuel Eddy - Strangers On The Run
DYEAR=1995
DGENRE=Blues-Rock
TTITLE0=Sweetest Revenge
TTITLE1=Stranger On The Run
TTITLE2=Snake Tattoo
TTITLE3=Blues On Your Doorstep
TTITLE4=Night In The Dam
TTITLE5=Funkytown
TTITLE6=Mystica
TTITLE7=Get Lost
TTITLE8=Ain`t Goin`Cheap
TTITLE9=Turn Around
TTITLE10=Falsely Accused
EXTD=
EXTT0=
EXTT1=
EXTT2=
EXTT3=
EXTT4=
EXTT5=
EXTT6=
EXTT7=
EXTT8=
EXTT9=
EXTT10=
PLAYORDER=
